HIERARCHY
ROOT Hips
{
	OFFSET 53.407600 -4.761965 91.581299
	CHANNELS 6 Xposition Yposition Zposition Xrotation Yrotation Zrotation
	JOINT spine
	{
		OFFSET 0.000000 -0.393702 6.846367
		CHANNELS 3 Xrotation Yrotation Zrotation
		JOINT spine1
		{
			OFFSET 0.000000 -0.000001 9.496208
			CHANNELS 3 Xrotation Yrotation Zrotation
			JOINT spine2
			{
				OFFSET 0.000000 -0.000001 9.099091
				CHANNELS 3 Xrotation Yrotation Zrotation
				JOINT Neck
				{
					OFFSET 0.000000 -1.113784 23.361206
					CHANNELS 3 Xrotation Yrotation Zrotation
					JOINT Head
					{
						OFFSET 0.000000 -0.000001 7.058014
						CHANNELS 3 Xrotation Yrotation Zrotation
						End Site
						{
							OFFSET 0.000000 5.634187 17.084396
						}
					}
				}
				JOINT RightShoulder
				{
					OFFSET -3.831360 0.533490 9.826309
					CHANNELS 3 Xrotation Yrotation Zrotation
					JOINT RightArm
					{
						OFFSET 0.000000 -0.000002 12.888092
						CHANNELS 3 Xrotation Yrotation Zrotation
						JOINT RightArmRoll
						{
							OFFSET 0.000000 -0.000001 6.506165
							CHANNELS 3 Xrotation Yrotation Zrotation
							JOINT RightForeArm
							{
								OFFSET 0.000000 -0.000003 18.950104
								CHANNELS 3 Xrotation Yrotation Zrotation
								JOINT RightForeArmRoll
								{
									OFFSET 0.000000 -0.000001 7.300934
									CHANNELS 3 Xrotation Yrotation Zrotation
									JOINT RightHand
									{
										OFFSET 0.000000 -0.000002 14.651398
										CHANNELS 3 Xrotation Yrotation Zrotation
										End Site
										{
											OFFSET 0.000000 0.000000 0.100006
										}
									}
								}
							}
						}
					}
				}
				JOINT LeftShoulder
				{
					OFFSET 3.831360 0.533490 9.826309
					CHANNELS 3 Xrotation Yrotation Zrotation
					JOINT LeftArm
					{
						OFFSET 0.000000 -0.000002 12.888092
						CHANNELS 3 Xrotation Yrotation Zrotation
						JOINT LeftArmRoll
						{
							OFFSET 0.000000 -0.000001 6.506165
							CHANNELS 3 Xrotation Yrotation Zrotation
							JOINT LeftForeArm
							{
								OFFSET 0.000000 -0.000003 18.950104
								CHANNELS 3 Xrotation Yrotation Zrotation
								JOINT LeftForeArmRoll
								{
									OFFSET 0.000000 -0.000001 7.300934
									CHANNELS 3 Xrotation Yrotation Zrotation
									JOINT LeftHand
									{
										OFFSET 0.000000 -0.000002 14.651398
										CHANNELS 3 Xrotation Yrotation Zrotation
										End Site
										{
											OFFSET 0.000000 0.000000 0.100006
										}
									}
								}
							}
						}
					}
				}
			}
		}
	}
	JOINT RightUpLeg
	{
		OFFSET -6.068371 0.933477 -1.112778
		CHANNELS 3 Xrotation Yrotation Zrotation
		JOINT RightUpLegRoll
		{
			OFFSET 0.000000 -0.000003 17.179596
			CHANNELS 3 Xrotation Yrotation Zrotation
			JOINT RightLeg
			{
				OFFSET 0.000000 0.000004 -21.274300
				CHANNELS 3 Xrotation Yrotation Zrotation
				JOINT RightLegRoll
				{
					OFFSET 0.000000 -0.000004 21.343903
					CHANNELS 3 Xrotation Yrotation Zrotation
					JOINT RightFoot
					{
						OFFSET 0.000000 -0.000003 17.765198
						CHANNELS 3 Xrotation Yrotation Zrotation
						JOINT RightToeBase
						{
							OFFSET 0.000000 -0.000002 14.850792
							CHANNELS 3 Xrotation Yrotation Zrotation
							End Site
							{
								OFFSET 0.006294 0.829004 7.192139
							}
						}
					}
				}
			}
		}
	}
	JOINT LeftUpLeg
	{
		OFFSET 6.068371 0.933477 -1.112778
		CHANNELS 3 Xrotation Yrotation Zrotation
		JOINT LeftUpLegRoll
		{
			OFFSET 0.000000 -0.000003 17.179703
			CHANNELS 3 Xrotation Yrotation Zrotation
			JOINT LeftLeg
			{
				OFFSET 0.000000 -0.000003 21.274200
				CHANNELS 3 Xrotation Yrotation Zrotation
				JOINT LeftLegRoll
				{
					OFFSET 0.000000 -0.000004 21.541199
					CHANNELS 3 Xrotation Yrotation Zrotation
					JOINT LeftFoot
					{
						OFFSET 0.000000 -0.000003 17.567902
						CHANNELS 3 Xrotation Yrotation Zrotation
						JOINT LeftToeBase
						{
							OFFSET 0.000000 -0.000002 14.850800
							CHANNELS 3 Xrotation Yrotation Zrotation
							End Site
							{
								OFFSET -0.028210 0.829004 7.192139
							}
						}
					}
				}
			}
		}
	}
}
MOTION
Frames: 12
Frame Time: 0.041667
53.851200 -5.720066 91.461098 -4.249932 -0.047137 -0.834106 -1.728162 -0.141633 -0.102703 0.546199 -0.270909 -0.208157 2.191285 -0.273116 -0.204899 32.430394 4.112745 -0.525701 -11.060772 -2.605180 -0.167972 28.855401 -71.814597 29.780909 -19.803392 -99.906338 -5.639307 0.000002 -0.000000 -0.000003 11.208849 -11.423764 0.172673 0.000004 0.000003 -2.999999 -5.000211 -7.998713 0.000154 12.940717 71.126298 -12.770823 -36.255255 106.548014 12.221063 -0.000003 0.000023 0.000010 1.302171 10.903351 0.127744 0.000001 -0.000010 3.009948 -5.000250 7.998753 -0.000158 2.084649 -175.379041 1.877279 -179.999991 0.000005 -1.152999 175.362470 -2.423047 -0.223494 0.000008 0.000002 0.041489 68.915140 6.913116 2.088677 25.456957 -7.355615 0.000010 5.628465 175.893818 0.455818 -0.000005 -0.000004 -1.217210 -4.886472 0.352792 0.173762 -0.000003 0.000002 -0.025520 68.805488 -6.914367 -2.092565 25.456964 7.355614 0.000001 
53.859600 -5.728171 91.462997 -4.249148 -0.046513 -0.830838 -1.727632 -0.142062 -0.102703 0.547230 -0.272347 -0.208318 2.192315 -0.274264 -0.205041 32.409442 4.111193 -0.525806 -11.044444 -2.603784 -0.168619 28.858902 -71.810560 29.785690 -19.813148 -99.898149 -5.654205 0.000001 -0.000000 -0.000003 11.216484 -11.430837 0.173926 0.000004 0.000002 -3.000000 -5.000211 -7.998712 0.000154 12.956579 71.129371 -12.787585 -36.249566 106.531212 12.230487 -0.000002 0.000022 0.000007 1.324872 10.921851 0.127021 -0.000001 -0.000011 3.009951 -5.000252 7.998751 -0.000157 2.080783 -175.380051 1.877232 -179.999991 0.000005 -1.152999 175.355312 -2.423022 -0.223797 0.000008 0.000002 0.041488 68.916820 6.913106 2.088670 25.456959 -7.355617 0.000010 5.624401 175.892794 0.452591 -0.000005 -0.000005 -1.217210 -4.886414 0.357270 0.173761 -0.000003 0.000002 -0.025549 68.805488 -6.914367 -2.092566 25.456962 7.355613 0.000000 
53.852901 -5.724220 91.461800 -4.248128 -0.046024 -0.827370 -1.727136 -0.142455 -0.102703 0.548162 -0.273742 -0.208489 2.193245 -0.275349 -0.205197 32.388364 4.109002 -0.525857 -11.027702 -2.601664 -0.169242 28.861996 -71.806694 29.789986 -19.823651 -99.890308 -5.669419 0.000001 -0.000001 -0.000004 11.223299 -11.437845 0.175078 0.000003 0.000003 -3.000000 -5.000209 -7.998712 0.000154 12.972664 71.131912 -12.804691 -36.239577 106.515967 12.235177 -0.000002 0.000022 0.000007 1.347827 10.939644 0.126319 -0.000001 -0.000011 3.009951 -5.000249 7.998752 -0.000159 2.076446 -175.380038 1.877412 -179.999991 0.000005 -1.152998 175.347663 -2.424003 -0.223205 0.000008 0.000002 0.041488 68.918617 6.913103 2.088757 25.456957 -7.355616 0.000010 5.620073 175.891783 0.449625 -0.000005 -0.000004 -1.217210 -4.886507 0.361566 0.173759 -0.000003 0.000002 -0.025578 68.805283 -6.914389 -2.092482 25.456960 7.355613 0.000001 
53.848400 -5.728249 91.462502 -4.246931 -0.045628 -0.823761 -1.726663 -0.142822 -0.102703 0.549021 -0.275108 -0.208666 2.194105 -0.276390 -0.205358 32.367068 4.106353 -0.525831 -11.010764 -2.599036 -0.169854 28.864772 -71.802896 29.793924 -19.834772 -99.882726 -5.685117 0.000001 -0.000000 -0.000004 11.229708 -11.444869 0.176201 0.000004 0.000003 -2.999999 -5.000209 -7.998713 0.000154 12.988941 71.134139 -12.822078 -36.227317 106.501473 12.237103 -0.000002 0.000022 0.000008 1.370968 10.957041 0.125630 -0.000004 -0.000011 3.009950 -5.000252 7.998751 -0.000158 2.071794 -175.380010 1.877717 -179.999991 0.000005 -1.152998 175.339685 -2.424970 -0.223624 0.000008 0.000002 0.041488 68.920618 6.913113 2.088634 25.456959 -7.355615 0.000010 5.615562 175.890758 0.446844 -0.000005 -0.000005 -1.217210 -4.886709 0.365734 0.173758 -0.000003 0.000002 -0.025607 68.805167 -6.914346 -2.092583 25.456962 7.355613 0.000001 
53.854401 -5.727771 91.460899 -4.245629 -0.045285 -0.820073 -1.726213 -0.143174 -0.102703 0.549839 -0.276458 -0.208847 2.194925 -0.277407 -0.205524 32.345761 4.103457 -0.525792 -10.993721 -2.596123 -0.170462 28.867296 -71.799140 29.797585 -19.846221 -99.875261 -5.700941 0.000001 -0.000000 -0.000003 11.235804 -11.451707 0.177265 0.000003 0.000003 -2.999999 -5.000209 -7.998712 0.000154 13.005262 71.136038 -12.839552 -36.214940 106.486959 12.238705 -0.000002 0.000022 0.000006 1.394211 10.974131 0.124938 -0.000001 -0.000011 3.009950 -5.000247 7.998753 -0.000157 2.066938 -175.380010 1.878096 -179.999991 0.000005 -1.152999 175.331543 -2.425936 -0.224048 0.000008 0.000002 0.041488 68.922722 6.913091 2.088699 25.456953 -7.355614 0.000010 5.610946 175.889720 0.444166 -0.000005 -0.000004 -1.217210 -4.886971 0.369826 0.173755 -0.000003 0.000002 -0.025636 68.804962 -6.914371 -2.092498 25.456964 7.355613 0.000000 
53.857101 -5.719246 91.460106 -4.244309 -0.044956 -0.816364 -1.725768 -0.143522 -0.102703 0.550648 -0.277803 -0.209029 2.195736 -0.278417 -0.205690 32.324355 4.100496 -0.525745 -10.976578 -2.593132 -0.171065 28.869926 -71.795472 29.801348 -19.857832 -99.867816 -5.716932 0.000000 -0.000001 -0.000003 11.241801 -11.458646 0.178331 0.000004 0.000002 -2.999999 -5.000209 -7.998714 0.000154 13.021651 71.137943 -12.857111 -36.202513 106.472431 12.240265 -0.000002 0.000022 0.000008 1.417486 10.991217 0.124237 0.000001 -0.000011 3.009948 -5.000250 7.998752 -0.000160 2.062038 -175.379983 1.878501 -179.999991 0.000005 -1.152999 175.323347 -2.426901 -0.223466 0.000008 0.000002 0.041488 68.924737 6.913102 2.088776 25.456957 -7.355616 0.000009 5.606298 175.888682 0.441516 -0.000005 -0.000004 -1.217209 -4.887243 0.373901 0.173753 -0.000004 0.000002 -0.025666 68.804744 -6.914355 -2.092609 25.456964 7.355613 0.000001 
53.853401 -5.720932 91.464203 -4.243041 -0.044600 -0.812697 -1.725315 -0.143878 -0.102703 0.551477 -0.279156 -0.209209 2.196566 -0.279441 -0.205855 32.303048 4.097663 -0.525713 -10.959531 -2.590296 -0.171678 28.872494 -71.791695 29.805057 -19.869394 -99.860248 -5.732976 0.000001 -0.000000 -0.000004 11.248002 -11.465574 0.179418 0.000004 0.000003 -3.000000 -5.000208 -7.998714 0.000154 13.037994 71.139951 -12.874592 -36.190085 106.457917 12.241921 -0.000003 0.000021 0.000006 1.440716 11.008304 0.123515 -0.000001 -0.000012 3.009950 -5.000251 7.998753 -0.000160 2.057245 -175.379969 1.878856 -179.999991 0.000005 -1.152999 175.315219 -2.427868 -0.223891 0.000008 0.000002 0.041488 68.926840 6.913079 2.088740 25.456957 -7.355617 0.000010 5.601705 175.887671 0.438814 -0.000005 -0.000005 -1.217210 -4.887486 0.378014 0.173751 -0.000003 0.000002 -0.025695 68.804539 -6.914382 -2.092527 25.456962 7.355614 0.000000 
53.852100 -5.719138 91.462898 -4.241888 -0.044177 -0.809128 -1.724834 -0.144252 -0.102703 0.552358 -0.280531 -0.209384 2.197436 -0.280495 -0.206015 32.281861 4.095153 -0.525730 -10.942696 -2.587812 -0.172301 28.875356 -71.787890 29.809087 -19.880507 -99.852557 -5.748690 -0.000000 0.000000 -0.000003 11.254509 -11.472491 0.180539 0.000005 0.000003 -2.999999 -5.000209 -7.998713 0.000154 13.054262 71.142274 -12.891945 -36.179819 106.442631 12.246012 -0.000002 0.000022 0.000008 1.463818 11.025890 0.122759 -0.000001 -0.000012 3.009949 -5.000248 7.998752 -0.000159 2.052681 -175.379956 1.879128 -179.999991 0.000005 -1.152999 175.307351 -2.427839 -0.223228 0.000008 0.000002 0.041488 68.928746 6.913120 2.088627 25.456959 -7.355615 0.000010 5.597253 175.886633 0.435982 -0.000005 -0.000004 -1.217210 -4.887659 0.382217 0.173749 -0.000003 0.000002 -0.025724 68.804437 -6.914373 -2.092533 25.456967 7.355615 0.000000 
53.859001 -5.718980 91.461800 -4.240941 -0.043646 -0.805720 -1.724335 -0.144655 -0.102703 0.553318 -0.281940 -0.209552 2.198396 -0.281597 -0.206166 32.260800 4.093151 -0.525792 -10.926059 -2.585914 -0.172939 28.878637 -71.784011 29.813605 -19.890728 -99.844702 -5.763822 0.000000 -0.000000 -0.000003 11.261538 -11.479590 0.181741 0.000006 0.000003 -3.000000 -5.000210 -7.998713 0.000154 13.070281 71.144917 -12.908951 -36.171767 106.426587 12.252695 -0.000003 0.000022 0.000007 1.486718 11.043872 0.121965 -0.000003 -0.000011 3.009950 -5.000250 7.998752 -0.000159 2.048486 -175.379942 1.879250 -179.999991 0.000005 -1.152999 175.299879 -2.428821 -0.223628 0.000008 0.000001 0.041488 68.930529 6.913081 2.088708 25.456959 -7.355615 0.000010 5.592996 175.885622 0.432939 -0.000005 -0.000005 -1.217210 -4.887710 0.386568 0.173748 -0.000003 0.000002 -0.025753 68.804334 -6.914368 -2.092538 25.456965 7.355613 0.000001 
53.858501 -5.715959 91.463501 -4.240258 -0.042968 -0.802533 -1.723773 -0.145100 -0.102703 0.554390 -0.283395 -0.209709 2.199477 -0.282769 -0.206305 32.239965 4.091858 -0.525946 -10.909830 -2.584818 -0.173602 28.882356 -71.779933 29.818622 -19.900260 -99.836383 -5.778509 0.000001 -0.000001 -0.000003 11.269483 -11.486647 0.183039 0.000003 0.000003 -2.999999 -5.000208 -7.998714 0.000154 13.086107 71.148284 -12.925632 -36.166060 106.409798 12.262397 -0.000003 0.000021 0.000006 1.509333 11.062556 0.121113 0.000001 -0.000011 3.009948 -5.000250 7.998752 -0.000158 2.044813 -175.380926 1.879129 -179.999991 0.000004 -1.152999 175.292885 -2.429791 -0.224005 0.000008 0.000002 0.041489 68.932011 6.913093 2.088820 25.456957 -7.355615 0.000010 5.589046 175.884584 0.429606 -0.000004 -0.000005 -1.217210 -4.887593 0.391120 0.173747 -0.000003 0.000002 -0.025781 68.804218 -6.914361 -2.092543 25.456964 7.355613 0.000001 
53.857601 -5.715018 91.460289 -4.239921 -0.042102 -0.799624 -1.723167 -0.145598 -0.102702 0.555604 -0.284910 -0.209851 2.200687 -0.284029 -0.206429 32.219372 4.091469 -0.526212 -10.894112 -2.584739 -0.174293 28.886530 -71.775576 29.824164 -19.908671 -99.827566 -5.792498 0.000001 -0.000001 -0.000003 11.278358 -11.493963 0.184471 0.000003 0.000003 -3.000000 -5.000209 -7.998712 0.000154 13.101566 71.152287 -12.941781 -36.162744 106.392286 12.275144 -0.000003 0.000022 0.000006 1.531599 11.082240 0.120194 -0.000001 -0.000011 3.009947 -5.000248 7.998753 -0.000159 2.041797 -175.381923 1.878751 -179.999991 0.000005 -1.152999 175.286573 -2.429769 -0.223275 0.000008 0.000002 0.041488 68.933274 6.913095 2.088740 25.456957 -7.355613 0.000010 5.585468 175.882576 0.425810 -0.000005 -0.000004 -1.217210 -4.887267 0.395929 0.173747 -0.000003 0.000003 -0.025809 68.804218 -6.914361 -2.092543 25.456962 7.355613 0.000001 
53.853901 -5.716129 91.461800 -4.240000 -0.041008 -0.797057 -1.722485 -0.146158 -0.102702 0.556990 -0.286497 -0.209978 2.202067 -0.285394 -0.206537 32.199226 4.092158 -0.526602 -10.879007 -2.585881 -0.175018 28.891594 -71.771054 29.830732 -19.915361 -99.818324 -5.805228 0.000000 -0.000001 -0.000003 11.288362 -11.501431 0.186040 0.000003 0.000002 -2.999999 -5.000211 -7.998712 0.000154 13.116652 71.157245 -12.957356 -36.166012 106.372458 12.295405 -0.000002 0.000022 0.000009 1.553425 11.102921 0.119200 -0.000002 -0.000011 3.009951 -5.000251 7.998753 -0.000159 2.039579 -175.382906 1.878057 -179.999991 0.000004 -1.152999 175.281068 -2.429750 -0.223509 0.000008 0.000002 0.041489 68.934231 6.913077 2.088777 25.456955 -7.355615 0.000010 5.582345 175.880568 0.421568 -0.000005 -0.000004 -1.217210 -4.886690 0.401049 0.173748 -0.000003 0.000002 -0.025836 68.804327 -6.914367 -2.092537 25.456960 7.355613 0.000001 
